<?xml version="1.0" encoding="UTF-8" standalone="no"?>
<!-- Created with Inkscape (http://www.inkscape.org/) -->

<svg
   xmlns:dc="http://purl.org/dc/elements/1.1/"
   xmlns:cc="http://creativecommons.org/ns#"
   xmlns:rdf="http://www.w3.org/1999/02/22-rdf-syntax-ns#"
   xmlns:svg="http://www.w3.org/2000/svg"
   xmlns="http://www.w3.org/2000/svg"
   xmlns:sodipodi="http://sodipodi.sourceforge.net/DTD/sodipodi-0.dtd"
   xmlns:inkscape="http://www.inkscape.org/namespaces/inkscape"
   id="svg4136"
   version="1.1"
   inkscape:version="0.91 r13725"
   xml:space="preserve"
   width="278.96024"
   height="275.13074"
   viewBox="0 0 278.96024 275.13074"
   sodipodi:docname="mosquitto-text-below.svg"><metadata
     id="metadata4142"><rdf:RDF><cc:Work
         rdf:about=""><dc:format>image/svg+xml</dc:format><dc:type
           rdf:resource="http://purl.org/dc/dcmitype/StillImage" /><dc:title></dc:title></cc:Work></rdf:RDF></metadata><defs
     id="defs4140" /><sodipodi:namedview
     pagecolor="#ffffff"
     bordercolor="#666666"
     borderopacity="1"
     objecttolerance="10"
     gridtolerance="10"
     guidetolerance="10"
     inkscape:pageopacity="0"
     inkscape:pageshadow="2"
     inkscape:window-width="1366"
     inkscape:window-height="706"
     id="namedview4138"
     showgrid="false"
     inkscape:zoom="1.7899063"
     inkscape:cx="139.48015"
     inkscape:cy="147.14238"
     inkscape:window-x="-8"
     inkscape:window-y="-8"
     inkscape:window-maximized="1"
     inkscape:current-layer="g4144"
     fit-margin-top="0"
     fit-margin-left="0"
     fit-margin-right="0"
     fit-margin-bottom="0" /><g
     id="g4144"
     inkscape:groupmode="layer"
     inkscape:label="mosquitto"
     transform="matrix(1.25,0,0,-1.25,-386.701,509.61263)"><path
       d="m 409.7506,225.3163 c 5.5876,5.061 14.2234,4.6336 19.2841,-0.9541 4.7267,-5.2191 4.6652,-13.0966 0.0839,-18.2373 l 3.1589,-3.956 11.6456,-14.5834 -13.3622,13.0283 -3.625,3.5345 c -5.5678,-4.0518 -13.413,-3.3349 -18.1397,1.884 -5.0607,5.5876 -4.6333,14.2234 0.9544,19.284 z m 15.2422,-14.0252 -2.1532,2.6969 c 0.411,1.3385 0.1272,2.8528 -0.8808,3.9656 -1.5219,1.6807 -4.1193,1.8091 -5.7999,0.2872 -1.6804,-1.5222 -1.8091,-4.1196 -0.2869,-5.8 1.0077,-1.1129 2.4868,-1.5449 3.8594,-1.2679 l 2.4709,-2.4092 c -2.836,-1.4508 -6.4003,-0.8892 -8.6408,1.5846 -2.6776,2.9562 -2.4514,7.5251 0.5048,10.2027 2.9566,2.6776 7.5254,2.4514 10.2031,-0.5048 2.2402,-2.4738 2.4471,-6.0761 0.7234,-8.7551"
       style="fill:#f3771c;fill-opacity:1;fill-rule:evenodd;stroke:none"
       id="path4156"
       inkscape:connector-curvature="0" /><path
       d="m 366.7164,228.6371 c 2.4168,0 4.6894,-0.6103 6.817,-1.815 2.1198,-1.2041 3.782,-2.8502 4.9706,-4.9138 1.1962,-2.0719 1.7906,-4.3042 1.7906,-6.7046 0,-2.4171 -0.6026,-4.6734 -1.7988,-6.7773 -1.2042,-2.1039 -2.8344,-3.7417 -4.9062,-4.9303 -2.0716,-1.1806 -4.3523,-1.7742 -6.8491,-1.7742 -3.6694,0 -6.8012,1.3087 -9.3949,3.918 -2.5934,2.6099 -3.8939,5.7819 -3.8939,9.5154 0,3.9985 1.4692,7.3312 4.3999,9.9969 2.5696,2.3205 5.5242,3.4849 8.8648,3.4849 z m 70.837,-0.6582 6.4961,0 0,-12.3335 c 0,-2.3933 0.1605,-4.0632 0.4896,-4.9949 0.3376,-0.9312 0.8594,-1.6617 1.5899,-2.1762 0.7311,-0.5216 1.6302,-0.7784 2.6983,-0.7784 1.0678,0 1.967,0.2568 2.7139,0.7625 0.7466,0.5137 1.3008,1.2609 1.6622,2.2482 0.2645,0.7387 0.3932,2.3128 0.3932,4.7299 l 0,12.5424 6.4483,0 0,-10.8484 c 0,-4.4723 -0.3535,-7.532 -1.0602,-9.1778 -0.8592,-2.0072 -2.1283,-3.5492 -3.8064,-4.6173 -1.6781,-1.0755 -3.814,-1.6135 -6.3992,-1.6135 -2.8105,0 -5.0748,0.6262 -6.8094,1.8788 -1.7342,1.2603 -2.9551,3.003 -3.6615,5.2512 -0.498,1.55 -0.7548,4.3764 -0.7548,8.4634 l 0,10.6636 z m 81.3974,0.6582 c 2.4171,0 4.6896,-0.6103 6.817,-1.815 2.12,-1.2041 3.782,-2.8502 4.9706,-4.9138 1.1965,-2.0719 1.7906,-4.3042 1.7906,-6.7046 0,-2.4171 -0.6024,-4.6734 -1.7986,-6.7773 -1.2041,-2.1039 -2.8346,-3.7417 -4.9065,-4.9303 -2.0712,-1.1806 -4.352,-1.7742 -6.8488,-1.7742 -3.6697,0 -6.8011,1.3087 -9.3948,3.918 -2.5934,2.6099 -3.8943,5.7819 -3.8943,9.5154 0,3.9985 1.4695,7.3312 4.4003,9.9969 2.5696,2.3205 5.5241,3.4849 8.8645,3.4849 z m 0.0963,-6.0465 c -1.9913,0 -3.6535,-0.6982 -4.9782,-2.0878 -1.3249,-1.3892 -1.9836,-3.1631 -1.9836,-5.3234 0,-2.2323 0.6505,-4.0312 1.9675,-5.4122 1.3087,-1.3811 2.9628,-2.0713 4.9703,-2.0713 2.0072,0 3.6776,0.6985 5.0105,2.0954 1.3328,1.3972 1.9995,3.1878 1.9995,5.3881 0,2.192 -0.6505,3.9744 -1.9593,5.3478 -1.3167,1.3728 -2.9874,2.0634 -5.0267,2.0634 z m -25.7833,14.8147 6.3998,0 0,-9.4264 3.8055,0 0,-5.5326 -3.8055,0 0,-20.0662 -6.3998,0 0,20.0662 -3.2925,0 0,5.5326 3.2925,0 0,9.4264 z m -14.4454,0 6.3995,0 0,-9.4264 3.8055,0 0,-5.5326 -3.8055,0 0,-20.0662 -6.3995,0 0,20.0662 -3.2927,0 0,5.5326 3.2927,0 0,9.4264 z m -9.8047,1.108 c 1.1242,0 2.0962,-0.4096 2.9069,-1.2206 0.8028,-0.8186 1.2042,-1.8068 1.2042,-2.9627 0,-1.1484 -0.3932,-2.1277 -1.1963,-2.9308 -0.8027,-0.811 -1.758,-1.2124 -2.8664,-1.2124 -1.1486,0 -2.1282,0.4096 -2.931,1.2368 -0.8107,0.8186 -1.2126,1.8227 -1.2126,2.9945 0,1.1325 0.4019,2.0962 1.1967,2.899 0.8028,0.7948 1.7666,1.1962 2.8985,1.1962 z m -3.2281,-10.5344 6.4482,0 0,-25.5988 -6.4482,0 0,25.5988 z m -156.4248,0 6.4474,0 0,-2.9474 c 1.0998,1.2129 2.3204,2.1121 3.6612,2.7065 1.3416,0.5938 2.8023,0.8991 4.3849,0.8991 1.5976,0 3.043,-0.3937 4.3277,-1.1806 1.2846,-0.7863 2.3204,-1.9273 3.1073,-3.4367 1.0199,1.5094 2.2725,2.6504 3.7499,3.4367 1.4851,0.7869 3.0997,1.1806 4.8578,1.1806 1.8229,0 3.4208,-0.4257 4.8019,-1.277 1.381,-0.843 2.3689,-1.9511 2.971,-3.3159 0.6103,-1.3652 0.9076,-3.5816 0.9076,-6.6566 l 0,-15.0075 -6.4644,0 0,12.9841 c 0,2.9064 -0.3608,4.8659 -1.0837,5.8935 -0.7228,1.0276 -1.8068,1.542 -3.2442,1.542 -1.0999,0 -2.0878,-0.3132 -2.9549,-0.9399 -0.875,-0.6265 -1.5171,-1.4936 -1.9428,-2.6011 -0.4255,-1.1081 -0.6344,-2.8828 -0.6344,-5.332 l 0,-11.5466 -6.4721,0 0,12.3979 c 0,2.2881 -0.1687,3.9503 -0.5057,4.9785 -0.3373,1.0275 -0.8433,1.7901 -1.5177,2.2878 -0.6749,0.506 -1.4859,0.7554 -2.4412,0.7554 -1.0681,0 -2.0392,-0.3214 -2.9066,-0.9558 -0.8671,-0.6341 -1.5256,-1.5256 -1.9511,-2.6657 -0.4337,-1.1483 -0.6505,-2.9469 -0.6505,-5.4125 l 0,-11.3856 -6.4474,0 0,25.5988 z m 91.8425,-3.5815 -3.9745,-3.9751 c -1.6135,1.5985 -3.0753,2.4013 -4.3923,2.4013 -0.7228,0 -1.2928,-0.1528 -1.6942,-0.4578 -0.4096,-0.3048 -0.618,-0.6908 -0.618,-1.1401 0,-0.345 0.1364,-0.6667 0.3932,-0.9553 0.2568,-0.2894 0.8991,-0.6826 1.919,-1.1889 l 2.3446,-1.1721 c 2.4811,-1.2288 4.1836,-2.4729 5.1072,-3.7414 0.9235,-1.2694 1.3892,-2.763 1.3892,-4.4731 0,-2.272 -0.8354,-4.1672 -2.5052,-5.6928 -1.6705,-1.5177 -3.9107,-2.2802 -6.7131,-2.2802 -3.7338,0 -6.7127,1.4607 -8.945,4.3755 l 3.9586,4.3045 c 0.7469,-0.8757 1.6302,-1.5903 2.6419,-2.1283 1.0117,-0.5374 1.9108,-0.811 2.6975,-0.811 0.8435,0 1.5261,0.2007 2.0401,0.6103 0.5218,0.4096 0.7789,0.8756 0.7789,1.4137 0,0.9873 -0.9317,1.951 -2.7947,2.8904 l -2.1676,1.084 c -4.1437,2.0877 -6.2076,4.6973 -6.2076,7.8287 0,2.024 0.7792,3.7582 2.3372,5.1874 1.5573,1.4372 3.5572,2.16 5.9901,2.16 1.662,0 3.2196,-0.3696 4.6888,-1.1001 1.4698,-0.7308 2.7142,-1.7745 3.7259,-3.1396 z m -34.3905,-1.8068 c -1.9914,0 -3.6536,-0.6982 -4.9785,-2.0878 -1.3246,-1.3892 -1.9834,-3.1631 -1.9834,-5.3234 0,-2.2323 0.6503,-4.0312 1.9672,-5.4122 1.3091,-1.3811 2.9631,-2.0713 4.9703,-2.0713 2.0075,0 3.678,0.6985 5.0105,2.0954 1.3329,1.3972 1.9996,3.1878 1.9996,5.3881 0,2.192 -0.6506,3.9744 -1.9593,5.3478 -1.3167,1.3728 -2.9872,2.0634 -5.0264,2.0634"
       style="fill:#3c5280;fill-opacity:1;fill-rule:evenodd;stroke:none"
       id="path4158"
       inkscape:connector-curvature="0" /><path
       d="m 420.9449,237.9852 3.1034,42.3947 2.5194,34.4248 c 5.1916,2.194 8.8356,7.3344 8.8356,13.324 0,7.9837 -6.4746,14.4584 -14.4584,14.4584 -7.9838,0 -14.4584,-6.4747 -14.4584,-14.4584 0,-5.9896 3.6439,-11.13 8.8356,-13.324 l 2.5194,-34.4248 3.1034,-42.3947 z"
       style="fill:#f3771c;fill-opacity:1;fill-rule:evenodd;stroke:none"
       id="path4160"
       inkscape:connector-curvature="0" /><path
       d="m 322.2003,328.1839 c 0,-24.4581 8.9422,-47.3527 24.4508,-65.0437 l -9.347,-8.3787 c -17.5008,19.9159 -27.6522,45.7824 -27.6522,73.4224 0,31.144 12.801,59.3037 33.4258,79.5062 l 0.47,-0.4215 27.6474,-24.7845 C 345.2111,358.664 339.8298,319.926 357.9086,290.084 l 9.5443,8.5556 c -13.7812,24.8958 -8.5306,56.3422 13.1394,75.42 l 9.4666,-8.4844 8.4197,-7.5492 8.7333,-7.8288 c -3.2664,-2.048 -6.0429,-4.8044 -8.1148,-8.0538 -2.5602,-4.0158 -4.0439,-8.7843 -4.0439,-13.8982 0,-11.4001 7.3721,-21.0816 17.6077,-24.5373 l 0.8807,-12.0308 c -17.0538,3.435 -29.9009,18.5037 -29.9009,36.5681 0,8.0438 2.5472,15.4941 6.8791,21.5875 l -8.356,7.4922 -0.0315,0.0284 c -13.6984,-18.1953 -12.852,-43.4563 1.899,-60.7045 L 355.9969,271.518 c -27.6004,31.6071 -28.3884,78.5191 -1.9533,111.0143 l -9.3515,8.3835 c -12.907,-15.6702 -21.0804,-35.3849 -22.3254,-56.9549 l -0.057,-0.0637 0.0507,-0.0454 c -0.1063,-1.876 -0.1601,-3.7655 -0.1601,-5.6679 z m 107.0286,-24.476 c 10.2356,3.4557 17.6076,13.1375 17.6076,24.5373 0,5.1139 -1.4836,9.8824 -4.0436,13.8979 -2.0718,3.2494 -4.8484,6.0061 -8.1144,8.0538 l 8.7329,7.8288 8.4206,7.5486 -8e-4,9e-4 9.4666,8.4844 c 21.67,-19.0778 26.9206,-50.5242 13.1394,-75.42 l 9.5442,-8.5556 c 18.0786,29.842 12.6976,68.58 -13.2865,92.4001 l 27.6486,24.7856 0.4688,0.4204 c 20.6249,-20.2025 33.4259,-48.3622 33.4259,-79.5062 0,-27.64 -10.1515,-53.5065 -27.6523,-73.4224 l -9.3469,8.3787 c 15.5083,17.691 24.4505,40.5856 24.4505,65.0437 0,1.9024 -0.0536,3.7919 -0.1599,5.6679 l 0.0507,0.0454 -0.0569,0.0637 c -1.245,21.57 -9.4184,41.2847 -22.3257,56.9549 l -9.3512,-8.3835 c 26.435,-32.4952 25.6467,-79.4072 -1.9534,-111.0143 l -28.0346,25.1308 c 14.7512,17.2482 15.5976,42.5092 1.8992,60.7045 l -0.0317,-0.0284 -8.356,-7.4922 c 4.3319,-6.0936 6.8791,-13.5439 6.8791,-21.5875 0,-18.0644 -12.8472,-33.1328 -29.9007,-36.5681 l 0.8805,12.0308 z"
       style="fill:#3c5280;fill-opacity:1;fill-rule:evenodd;stroke:none"
       id="path4162"
       inkscape:connector-curvature="0" /></g></svg>