<?xml version="1.0" encoding="UTF-8" standalone="no"?>
<!-- Created with Inkscape (http://www.inkscape.org/) -->

<svg
   xmlns:dc="http://purl.org/dc/elements/1.1/"
   xmlns:cc="http://creativecommons.org/ns#"
   xmlns:rdf="http://www.w3.org/1999/02/22-rdf-syntax-ns#"
   xmlns:svg="http://www.w3.org/2000/svg"
   xmlns="http://www.w3.org/2000/svg"
   xmlns:sodipodi="http://sodipodi.sourceforge.net/DTD/sodipodi-0.dtd"
   xmlns:inkscape="http://www.inkscape.org/namespaces/inkscape"
   id="svg4141"
   version="1.1"
   inkscape:version="0.91 r13725"
   xml:space="preserve"
   width="338.81839"
   height="68.285248"
   viewBox="0 0 338.81839 68.285248"
   sodipodi:docname="mosquitto-text-side.svg"><metadata
     id="metadata4147"><rdf:RDF><cc:Work
         rdf:about=""><dc:format>image/svg+xml</dc:format><dc:type
           rdf:resource="http://purl.org/dc/dcmitype/StillImage" /><dc:title></dc:title></cc:Work></rdf:RDF></metadata><defs
     id="defs4145" /><sodipodi:namedview
     pagecolor="#ffffff"
     bordercolor="#666666"
     borderopacity="1"
     objecttolerance="10"
     gridtolerance="10"
     guidetolerance="10"
     inkscape:pageopacity="0"
     inkscape:pageshadow="2"
     inkscape:window-width="1366"
     inkscape:window-height="706"
     id="namedview4143"
     showgrid="false"
     fit-margin-top="0"
     fit-margin-left="0"
     fit-margin-right="0"
     fit-margin-bottom="0"
     inkscape:zoom="2.5677474"
     inkscape:cx="169.40919"
     inkscape:cy="34.142625"
     inkscape:window-x="-8"
     inkscape:window-y="-8"
     inkscape:window-maximized="1"
     inkscape:current-layer="g4149" /><g
     id="g4149"
     inkscape:groupmode="layer"
     inkscape:label="mosquitto"
     transform="matrix(1.25,0,0,-1.25,-356.77175,167.07475)"><path
       d="m 452.2297,115.9716 c 4.7441,4.2967 12.0762,3.9339 16.3729,-0.8102 4.0131,-4.4311 3.9609,-11.1194 0.0712,-15.4839 l 2.6821,-3.3588 9.8873,-12.3817 -11.3451,11.0616 -3.0773,3.0005 c -4.7274,-3.4399 -11.3882,-2.8313 -15.4012,1.5996 -4.2968,4.744 -3.9339,12.0761 0.8101,16.3729 z m 12.9413,-11.9078 -1.8283,2.2896 c 0.3489,1.1364 0.108,2.4222 -0.7475,3.3669 -1.2923,1.427 -3.4977,1.5361 -4.9244,0.2438 -1.4269,-1.2923 -1.5361,-3.4976 -0.2437,-4.9243 0.8555,-0.9448 2.1112,-1.3116 3.2765,-1.0766 l 2.0979,-2.0452 c -2.4077,-1.232 -5.434,-0.7552 -7.336,1.345 -2.2734,2.5101 -2.0815,6.3893 0.4286,8.6627 2.5101,2.2734 6.3893,2.0812 8.6627,-0.4289 1.902,-2.0999 2.0778,-5.1585 0.6142,-7.433"
       style="fill:#f3771c;fill-opacity:1;fill-rule:evenodd;stroke:none"
       id="path4153"
       inkscape:connector-curvature="0" /><path
       d="m 475.835,118.2319 5.5156,0 0,-10.4714 c 0,-2.0319 0.1361,-3.4498 0.4156,-4.2409 0.2866,-0.7906 0.7296,-1.4108 1.3498,-1.8474 0.6208,-0.4428 1.3842,-0.661 2.291,-0.661 0.9065,0 1.6702,0.2182 2.3043,0.6474 0.6338,0.4363 1.1044,1.0704 1.4113,1.9089 0.2245,0.6273 0.3337,1.9635 0.3337,4.0155 l 0,10.6489 5.4745,0 0,-9.2103 c 0,-3.797 -0.2999,-6.395 -0.9,-7.7922 -0.7293,-1.7044 -1.8068,-3.0135 -3.2317,-3.9203 -1.4247,-0.9133 -3.2381,-1.37 -5.4329,-1.37 -2.3862,0 -4.3087,0.5318 -5.7813,1.5954 -1.4726,1.0698 -2.5089,2.5495 -3.109,4.4583 -0.4227,1.3159 -0.6409,3.7157 -0.6409,7.1856 l 0,9.0535 z m -60.1424,0.559 c 2.052,0 3.9815,-0.5181 5.7877,-1.5409 1.7998,-1.0224 3.2111,-2.4199 4.2203,-4.172 1.0156,-1.7592 1.5205,-3.6544 1.5205,-5.6923 0,-2.0523 -0.5117,-3.9679 -1.5276,-5.7543 -1.0222,-1.7861 -2.4064,-3.1768 -4.1652,-4.1859 -1.7589,-1.0024 -3.6953,-1.5064 -5.8153,-1.5064 -3.1153,0 -5.7742,1.1112 -7.9764,3.3268 -2.202,2.2155 -3.3061,4.9087 -3.3061,8.0784 0,3.3951 1.2473,6.2246 3.7358,8.4878 2.1818,1.9704 4.6902,2.9588 7.5263,2.9588 z m -48.6964,-0.559 5.474,0 0,-2.5024 c 0.934,1.0298 1.9703,1.7932 3.1084,2.2981 1.139,0.504 2.3794,0.7633 3.7228,0.7633 1.3566,0 2.5838,-0.3342 3.6745,-1.0023 1.0908,-0.6678 1.9701,-1.6362 2.6382,-2.918 0.866,1.2818 1.9293,2.2502 3.1839,2.918 1.2609,0.6681 2.6314,1.0023 4.1241,1.0023 1.548,0 2.9044,-0.3614 4.0771,-1.0842 1.1724,-0.7158 2.0115,-1.6566 2.5226,-2.8154 0.5181,-1.1588 0.7704,-3.0407 0.7704,-5.6517 l 0,-12.7417 -5.4884,0 0,11.0239 c 0,2.4678 -0.3064,4.1312 -0.9201,5.0037 -0.6137,0.8725 -1.5339,1.3093 -2.7545,1.3093 -0.9337,0 -1.7725,-0.2659 -2.5086,-0.7979 -0.743,-0.5321 -1.2881,-1.2682 -1.6495,-2.2085 -0.3614,-0.9408 -0.5389,-2.4477 -0.5389,-4.5269 l 0,-9.8036 -5.4947,0 0,10.5264 c 0,1.9426 -0.1434,3.3537 -0.4294,4.2268 -0.2863,0.8725 -0.716,1.5199 -1.2886,1.9425 -0.5729,0.4295 -1.2615,0.6412 -2.0727,0.6412 -0.9065,0 -1.7314,-0.2729 -2.4676,-0.8115 -0.7364,-0.5383 -1.2954,-1.2955 -1.6566,-2.2632 -0.3685,-0.9751 -0.5524,-2.5019 -0.5524,-4.5952 l 0,-9.667 -5.474,0 0,21.734 z m 77.9768,-3.0407 -3.3746,-3.3749 c -1.3697,1.3572 -2.6107,2.0387 -3.729,2.0387 -0.6137,0 -1.0976,-0.1296 -1.4386,-0.3887 -0.3475,-0.2588 -0.5247,-0.5862 -0.5247,-0.9677 0,-0.2931 0.1157,-0.5661 0.334,-0.8113 0.2179,-0.2458 0.7633,-0.5797 1.6293,-1.0091 l 1.9908,-0.9953 c 2.1061,-1.0434 3.5518,-2.0999 4.3359,-3.1768 0.784,-1.0774 1.1795,-2.3456 1.1795,-3.7975 0,-1.929 -0.7093,-3.5382 -2.1272,-4.8337 -1.4181,-1.2883 -3.3199,-1.9358 -5.6993,-1.9358 -3.1703,0 -5.6993,1.2402 -7.5946,3.7151 l 3.3608,3.6545 c 0.6344,-0.7436 1.3841,-1.3502 2.243,-1.8068 0.8589,-0.4564 1.6226,-0.6886 2.2904,-0.6886 0.7163,0 1.2957,0.1704 1.732,0.5179 0.443,0.3481 0.6613,0.7435 0.6613,1.2005 0,0.8382 -0.7909,1.6566 -2.3726,2.4539 l -1.8405,0.9204 c -3.5181,1.7726 -5.2702,3.9881 -5.2702,6.6467 0,1.7184 0.6613,3.191 1.9843,4.4042 1.3223,1.2203 3.02,1.834 5.0856,1.834 1.4114,0 2.7337,-0.3138 3.981,-0.934 1.2481,-0.6205 2.3045,-1.5066 3.1634,-2.6657 z m -29.1985,-1.5338 c -1.6906,0 -3.102,-0.593 -4.227,-1.7728 -1.1245,-1.1795 -1.6838,-2.6855 -1.6838,-4.5196 0,-1.8952 0.5522,-3.4225 1.6704,-4.5952 1.1112,-1.1724 2.5155,-1.7586 4.2197,-1.7586 1.7045,0 3.1226,0.5933 4.2539,1.7793 1.1319,1.186 1.6977,2.7062 1.6977,4.5745 0,1.861 -0.5522,3.3744 -1.6634,4.5403 -1.1179,1.1656 -2.5361,1.7521 -4.2675,1.7521 z m 129.1691,5.1335 c 2.0523,0 3.9816,-0.5181 5.7878,-1.5409 1.8,-1.0224 3.2111,-2.4199 4.2202,-4.172 1.016,-1.7592 1.5205,-3.6544 1.5205,-5.6923 0,-2.0523 -0.5116,-3.9679 -1.5273,-5.7543 -1.0224,-1.7861 -2.4066,-3.1768 -4.1655,-4.1859 -1.7586,-1.0024 -3.695,-1.5064 -5.815,-1.5064 -3.1155,0 -5.7742,1.1112 -7.9764,3.3268 -2.2019,2.2155 -3.3063,4.9087 -3.3063,8.0784 0,3.3951 1.2475,6.2246 3.7358,8.4878 2.1818,1.9704 4.6902,2.9588 7.5262,2.9588 z m 0.0819,-5.1335 c -1.6905,0 -3.1019,-0.593 -4.2267,-1.7728 -1.1248,-1.1795 -1.6841,-2.6855 -1.6841,-4.5196 0,-1.8952 0.5525,-3.4225 1.6705,-4.5952 1.1112,-1.1724 2.5155,-1.7586 4.2199,-1.7586 1.7042,0 3.1227,0.5933 4.254,1.7793 1.1319,1.186 1.6977,2.7062 1.6977,4.5745 0,1.861 -0.5525,3.3744 -1.6637,4.5403 -1.1177,1.1656 -2.5362,1.7521 -4.2676,1.7521 z m -21.8908,12.5779 5.4337,0 0,-8.0034 3.231,0 0,-4.6973 -3.231,0 0,-17.0367 -5.4337,0 0,17.0367 -2.7952,0 0,4.6973 2.7952,0 0,8.0034 z m -12.2644,0 5.4332,0 0,-8.0034 3.2312,0 0,-4.6973 -3.2312,0 0,-17.0367 -5.4332,0 0,17.0367 -2.7955,0 0,4.6973 2.7955,0 0,8.0034 z m -8.3245,0.9408 c 0.9545,0 1.7796,-0.3478 2.4682,-1.0364 0.6814,-0.695 1.0221,-1.5338 1.0221,-2.5154 0,-0.9749 -0.3336,-1.8063 -1.0156,-2.4883 -0.6815,-0.6885 -1.4928,-1.0295 -2.4336,-1.0295 -0.9751,0 -1.8068,0.3481 -2.4882,1.0502 -0.6886,0.6951 -1.0298,1.5475 -1.0298,2.5424 0,0.9615 0.3412,1.7799 1.0162,2.4613 0.6814,0.675 1.4995,1.0157 2.4607,1.0157 z m -2.7408,-8.9442 5.4748,0 0,-21.734 -5.4748,0 0,21.734 z"
       style="fill:#3c5280;fill-opacity:1;fill-rule:evenodd;stroke:none"
       id="path4155"
       inkscape:connector-curvature="0" /><path
       d="m 321.2427,79.0316 0.999,13.6471 0.811,11.0812 c 1.6713,0.7064 2.8442,2.361 2.8442,4.2891 0,2.5699 -2.0843,4.654 -4.6542,4.654 -2.5701,0 -4.6542,-2.0841 -4.6542,-4.654 0,-1.9281 1.173,-3.5827 2.8443,-4.2891 l 0.811,-11.0812 0.9989,-13.6471 z"
       style="fill:#f3771c;fill-opacity:1;fill-rule:evenodd;stroke:none"
       id="path4157"
       inkscape:connector-curvature="0" /><path
       d="m 289.4567,108.0666 c 0,-7.8729 2.8786,-15.2427 7.8707,-20.9375 l -3.0087,-2.6972 c -5.6336,6.4111 -8.9013,14.7373 -8.9013,23.6347 0,10.0253 4.1207,19.0899 10.7597,25.5932 l 0.1514,-0.1358 8.8996,-7.9781 c -8.3642,-7.6677 -10.0964,-20.1373 -4.2769,-29.7437 l 3.0725,2.7542 c -4.4362,8.0141 -2.7462,18.1366 4.2296,24.2776 l 3.0472,-2.7312 2.7102,-2.4299 2.8114,-2.5202 c -1.0516,-0.6591 -1.9454,-1.5463 -2.6121,-2.5923 -0.8243,-1.2929 -1.3017,-2.8279 -1.3017,-4.4739 0,-3.6698 2.3729,-6.7862 5.6676,-7.8985 l 0.2838,-3.873 c -5.4899,1.1058 -9.6254,5.9565 -9.6254,11.7715 0,2.5894 0.8201,4.9875 2.2145,6.9491 l -2.6898,2.4117 -0.01,0.009 c -4.4095,-5.8573 -4.1371,-13.9887 0.6112,-19.5409 l -9.0244,-8.0895 c -8.8843,10.1743 -9.138,25.2751 -0.6287,35.7355 l -3.0101,2.6986 c -4.1548,-5.0443 -6.7859,-11.3905 -7.1867,-18.3337 l -0.0184,-0.0207 0.0164,-0.0144 c -0.0343,-0.6038 -0.0516,-1.2121 -0.0516,-1.8247 z m 34.4526,-7.8786 c 3.2947,1.1123 5.6679,4.2287 5.6679,7.8985 0,1.646 -0.4777,3.181 -1.3017,4.4736 -0.667,1.046 -1.5608,1.9335 -2.6118,2.5926 l 2.8111,2.52 2.7105,2.4301 -3e-4,0 3.0472,2.7312 c 6.9755,-6.141 8.6658,-16.2635 4.2296,-24.2776 l 3.0722,-2.7542 c 5.8198,9.6064 4.0875,22.076 -4.2769,29.7437 l 8.9002,7.9787 0.1508,0.1352 c 6.6393,-6.5033 10.7597,-15.5679 10.7597,-25.5932 0,-8.8974 -3.2675,-17.2236 -8.901,-23.6347 l -3.009,2.6972 c 4.9924,5.6948 7.8707,13.0646 7.8707,20.9375 0,0.6126 -0.0173,1.2209 -0.0513,1.8247 l 0.0161,0.0144 -0.0181,0.0207 c -0.4008,6.9432 -3.032,13.2894 -7.1867,18.3337 l -3.0101,-2.6986 c 8.5093,-10.4604 8.2556,-25.5612 -0.629,-35.7355 l -9.0241,8.0895 c 4.7483,5.5522 5.0207,13.6836 0.6111,19.5409 l -0.0102,-0.009 -2.6898,-2.412 c 1.3944,-1.9613 2.2145,-4.3597 2.2145,-6.9488 0,-5.815 -4.1355,-10.6654 -9.6251,-11.7715 l 0.2835,3.873 z"
       style="fill:#3c5280;fill-opacity:1;fill-rule:evenodd;stroke:none"
       id="path4159"
       inkscape:connector-curvature="0" /></g></svg>